<?xml version="1.0" standalone="no"?>
<!DOCTYPE svg PUBLIC "-//W3C//DTD SVG 20010904//EN"
 "http://www.w3.org/TR/2001/REC-SVG-20010904/DTD/svg10.dtd">
<svg version="1.0" xmlns="http://www.w3.org/2000/svg"
 width="173.000000pt" height="173.000000pt" viewBox="0 0 173.000000 173.000000"
 preserveAspectRatio="xMidYMid meet">
<metadata>
Created by potrace 1.11, written by Peter Selinger 2001-2013
</metadata>
<g transform="translate(0.000000,173.000000) scale(0.100000,-0.100000)"
fill="#000000" stroke="none">
<path d="M270 1722 c-7 -3 -10 -300 -10 -863 l0 -859 160 0 c121 0 160 3 161
13 1 6 3 118 4 247 1 129 3 240 4 247 1 8 38 11 129 11 145 0 187 5 292 33
174 47 319 159 388 302 136 277 59 599 -178 749 -98 62 -235 105 -364 115 -79
6 -570 10 -586 5z m623 -312 c104 -23 173 -74 214 -159 22 -46 27 -70 27 -131
0 -123 -53 -212 -156 -262 -71 -35 -131 -45 -273 -44 l-120 1 0 300 c0 258 2
301 15 306 23 9 240 1 293 -11z"/>
</g>
</svg>
