<svg xmlns="http://www.w3.org/2000/svg" viewBox="0 0 824.12 188.42"><defs><style>.cls-1{fill:#202b36;}</style></defs><title>logo-black_1</title><g id="Layer_2" data-name="Layer 2"><g id="Layer_1-2" data-name="Layer 1"><path class="cls-1" d="M0,13.16H48c45.26,0,72.27,22.4,72.27,58.88,0,34.87-25.86,61.43-70.65,61.43H32.33v51.72H0Zm87.75,60C87.75,53.34,73,42.72,51,42.72H32.33v61.42H51.26C73,104.14,87.75,92.83,87.75,73.2Zm54.72-53.8a17.9,17.9,0,0,1,35.79,0A17.45,17.45,0,0,1,160.48,37C150.32,37,142.47,29.33,142.47,19.4Zm2.08,38.79h31.87v127H144.55Zm103.44,0h34.64V84.74H248V136c0,17.08,10.86,23.78,25.64,23.78a67.46,67.46,0,0,0,11.31-1.15v27.24a81.36,81.36,0,0,1-18.24,1.85c-31.64,0-49.65-18.93-49.65-50.11V84.74H198.58V58.19h18.7V28.63H248ZM369.92,159.33c10.16,0,21.93-2.08,32.56-9.7v29.79a77.83,77.83,0,0,1-36.72,9c-37.41,0-65.81-28.17-65.81-67,0-38.33,28.63-66.27,65.81-66.27,12.93,0,26.09,2.54,36.72,8.77V94a55.31,55.31,0,0,0-32.79-9.93c-20.09,0-37.64,14.32-37.64,37.64C332.05,145.24,349.6,159.33,369.92,159.33Zm92.13-88h.46c7.16-9.47,19.86-16.16,34.64-16.16,27.47,0,45,15.93,45,45.49v84.51H510.31V109.91c0-17.55-7.62-25.86-22.86-25.86-14.09,0-25.4,8.31-25.4,24.48v76.66H430.18V0h31.87Zm108.06,96.52a18.71,18.71,0,0,1,37.41,0,18.71,18.71,0,1,1-37.41,0Zm56.81-45.95c0-40.41,27.94-66.73,56.8-66.73,18.71,0,34.18,9.23,42.95,23.78l3.24-20.78h26.78v127H729.91l-3.24-20.78a49.25,49.25,0,0,1-42.95,24C654.86,188.42,626.92,161.87,626.92,121.92Zm98.37-.23c0-22.17-14.09-37.64-32.79-37.64-19.17,0-33.48,15.7-33.48,37.64s14.31,37.64,33.48,37.64C711.2,159.33,725.29,143.86,725.29,121.69Zm63-102.29a17.9,17.9,0,0,1,35.8,0A17.46,17.46,0,0,1,806.33,37C796.17,37,788.32,29.33,788.32,19.4Zm2.08,38.79h31.87v127H790.4Z"/></g></g></svg>